<?xml version="1.0" standalone="no"?>
<!DOCTYPE svg PUBLIC "-//W3C//DTD SVG 20010904//EN"
 "http://www.w3.org/TR/2001/REC-SVG-20010904/DTD/svg10.dtd">
<svg version="1.0" xmlns="http://www.w3.org/2000/svg"
 width="1800.000000pt" height="1800.000000pt" viewBox="0 0 1800.000000 1800.000000"
 preserveAspectRatio="xMidYMid meet">
<metadata>
Created by potrace 1.11, written by Peter Selinger 2001-2013
</metadata>
<g transform="translate(0.000000,1800.000000) scale(0.100000,-0.100000)"
fill="#000000" stroke="none">
<path d="M7918 17995 c-9 -9 -113 -24 -203 -30 -244 -14 -241 -13 -340 -48
-71 -26 -130 -35 -268 -42 -65 -3 -84 -8 -112 -29 -34 -26 -49 -30 -164 -41
-36 -3 -67 -8 -70 -9 -3 -2 -22 -7 -41 -10 -19 -3 -60 -17 -90 -32 -39 -19
-84 -30 -156 -39 -92 -10 -104 -14 -126 -39 -21 -25 -32 -29 -88 -31 -77 -3
-105 -10 -145 -41 -32 -23 -80 -39 -155 -48 -26 -4 -62 -18 -85 -35 -25 -18
-59 -31 -90 -35 -41 -6 -56 -14 -85 -46 -32 -34 -41 -38 -85 -38 -49 -1 -118
-23 -129 -41 -4 -5 -42 -21 -86 -36 -43 -14 -89 -34 -102 -44 -13 -9 -59 -28
-103 -40 -50 -14 -92 -33 -113 -52 -18 -16 -37 -29 -42 -29 -6 0 -12 0 -15 0
-13 1 -65 -31 -65 -40 0 -5 -27 -19 -59 -31 -33 -11 -69 -30 -80 -41 -24 -22
-98 -57 -122 -58 -8 0 -26 -11 -39 -24 -23 -25 -104 -59 -114 -48 -3 3 -6 0
-6 -6 0 -7 -7 -12 -15 -12 -8 0 -15 -7 -15 -15 0 -9 -19 -24 -41 -34 -23 -11
-51 -31 -63 -45 -16 -21 -33 -28 -76 -32 -63 -7 -100 -24 -127 -58 -11 -13
-39 -33 -64 -45 -24 -12 -62 -35 -84 -51 -22 -16 -51 -32 -65 -35 -14 -3 -42
-19 -62 -36 -20 -16 -39 -29 -42 -29 -7 0 -32 -20 -90 -70 -55 -48 -113 -90
-123 -90 -5 0 -22 -15 -39 -32 -17 -18 -64 -53 -105 -78 -40 -25 -91 -62 -113
-83 -22 -21 -57 -47 -78 -58 -21 -11 -44 -28 -50 -39 -7 -11 -18 -20 -25 -20
-7 0 -13 -4 -13 -9 0 -5 -9 -13 -21 -16 -26 -9 -89 -63 -89 -79 -1 -18 -33
-50 -72 -70 -20 -11 -58 -45 -85 -76 -26 -31 -69 -71 -95 -88 l-48 -32 -1420
0 -1420 0 0 -1940 0 -1940 180 0 c172 0 180 -1 171 -18 -5 -10 -12 -41 -15
-69 -3 -28 -16 -73 -30 -100 -13 -26 -27 -70 -30 -98 -3 -27 -8 -70 -11 -95
-9 -80 -27 -160 -36 -160 -5 0 -9 -7 -9 -15 0 -8 -4 -15 -9 -15 -13 0 -32 -85
-36 -159 -3 -39 -10 -70 -20 -81 -8 -9 -15 -22 -15 -28 0 -7 -4 -12 -8 -12 -5
0 -9 -15 -10 -32 -1 -37 -10 -119 -17 -158 -3 -14 -8 -45 -11 -70 -3 -25 -12
-65 -21 -90 -18 -54 -22 -75 -27 -138 -3 -26 -7 -64 -11 -84 -3 -21 -8 -84
-10 -140 -2 -57 -7 -128 -12 -158 -10 -68 -11 -2073 0 -2265 9 -170 21 -306
27 -312 1 -2 4 -12 5 -23 1 -11 4 -23 5 -27 1 -5 2 -11 1 -15 0 -5 3 -8 7 -8
5 0 9 -6 10 -12 0 -7 3 -23 6 -35 12 -46 14 -59 21 -138 6 -70 28 -135 45
-135 4 0 6 -28 5 -63 -1 -90 35 -277 55 -277 17 0 50 -105 54 -172 3 -44 15
-100 30 -140 14 -38 23 -68 19 -68 -3 0 1 -8 9 -17 13 -16 34 -76 44 -126 2
-10 9 -25 15 -33 7 -8 9 -17 6 -21 -4 -3 -3 -11 2 -17 9 -12 35 -84 36 -101 1
-5 6 -20 13 -33 7 -12 10 -22 7 -22 -3 0 1 -10 9 -22 8 -13 19 -42 25 -65 13
-48 32 -70 67 -79 28 -7 31 -18 38 -133 5 -79 30 -155 58 -172 5 -3 17 -37 27
-75 10 -38 30 -91 44 -119 15 -27 27 -58 27 -68 0 -30 17 -53 54 -75 31 -18
35 -26 41 -79 4 -32 14 -66 23 -75 8 -10 11 -18 6 -18 -5 0 -4 -4 1 -8 16 -11
34 -48 62 -124 14 -40 32 -78 39 -86 8 -7 14 -18 14 -23 0 -10 58 -100 70
-109 14 -10 30 -49 30 -73 0 -13 3 -27 7 -30 12 -12 13 -58 1 -51 -7 4 -8 2
-4 -5 4 -6 12 -8 18 -5 7 4 8 -2 3 -17 -7 -21 -6 -22 8 -10 9 7 14 17 11 22
-3 5 0 9 5 9 6 0 11 -2 11 -5 0 -9 -25 -50 -35 -57 -5 -4 7 -5 28 -3 29 4 36
2 31 -7 -4 -7 -4 -10 1 -6 4 4 15 2 24 -4 9 -7 6 -1 -7 13 -20 23 -21 27 -7
39 13 11 14 10 9 -4 -4 -10 1 -25 10 -35 9 -10 16 -22 14 -27 -4 -11 51 -124
69 -142 7 -7 16 -24 19 -38 3 -13 10 -24 16 -24 5 0 6 -4 3 -10 -3 -5 -1 -10
5 -10 6 0 10 -6 9 -12 -3 -17 26 -80 33 -73 3 3 9 -6 12 -20 4 -14 11 -23 16
-20 5 3 7 -4 5 -15 -2 -12 0 -18 6 -14 6 3 13 -3 16 -15 3 -12 10 -21 15 -21
5 0 6 -5 3 -11 -7 -10 70 -89 86 -89 12 0 23 -42 20 -79 -2 -24 1 -31 10 -25
9 5 11 2 6 -9 -7 -19 17 -42 34 -31 7 4 10 3 7 -2 -3 -5 0 -14 7 -21 11 -10
15 -10 19 0 3 7 7 4 11 -8 3 -11 19 -29 35 -40 16 -11 27 -22 24 -26 -2 -4 2
-14 10 -22 8 -8 16 -23 18 -33 2 -10 6 -22 10 -25 5 -3 9 -17 10 -32 1 -15 8
-29 16 -32 7 -3 10 -10 7 -15 -4 -6 -3 -10 2 -9 4 1 18 -2 30 -6 12 -4 25 -7
27 -6 3 0 17 -11 31 -25 17 -17 26 -39 30 -72 2 -26 9 -48 15 -50 5 -2 10 -10
10 -18 0 -8 3 -13 8 -13 13 3 73 -14 68 -18 -6 -6 17 -32 24 -28 3 2 7 -8 8
-23 1 -14 7 -29 13 -33 7 -4 8 -12 5 -18 -4 -7 1 -11 13 -11 11 0 23 -4 26
-10 4 -6 -1 -7 -12 -4 -15 6 -15 4 2 -9 11 -8 23 -13 26 -11 4 2 18 -9 32 -25
14 -17 28 -27 31 -24 3 4 6 -4 6 -16 0 -12 4 -19 10 -16 6 3 10 -1 10 -9 0 -9
5 -16 10 -16 6 0 10 -7 10 -16 0 -8 4 -13 9 -9 5 3 12 -4 16 -15 3 -11 13 -20
21 -20 8 0 14 -4 14 -10 0 -5 7 -10 16 -10 8 0 12 -4 9 -10 -3 -5 2 -10 11
-10 10 0 15 -3 11 -6 -8 -8 18 -34 34 -34 7 0 10 -3 6 -6 -3 -3 3 -15 13 -27
11 -11 17 -24 14 -28 -3 -5 6 -14 20 -21 14 -6 26 -16 26 -22 0 -6 5 -4 10 4
7 11 10 11 10 2 0 -7 4 -11 9 -7 15 8 50 -35 61 -75 14 -50 20 -57 67 -69 41
-11 103 -61 103 -84 0 -6 -7 -2 -16 9 -15 19 -15 19 -5 -1 5 -11 17 -29 26
-40 9 -11 14 -14 10 -7 -3 6 -1 12 4 12 6 0 11 -6 11 -14 0 -8 5 -18 12 -22 7
-5 9 -2 4 7 -4 8 1 4 12 -8 11 -12 22 -19 26 -16 3 3 8 -2 12 -11 3 -9 10 -13
15 -10 5 3 9 -2 9 -10 0 -9 5 -16 10 -16 6 0 10 -7 10 -16 0 -8 4 -12 10 -9 9
5 15 -16 11 -38 -1 -5 3 -6 8 -3 5 4 14 -2 20 -11 6 -10 11 -14 11 -9 0 5 11
-1 25 -14 14 -13 25 -20 25 -15 0 4 8 -2 19 -13 10 -12 21 -19 25 -15 3 3 6 1
6 -5 0 -6 11 -23 25 -37 14 -14 23 -25 20 -25 -7 0 5 -12 45 -45 13 -11 20
-14 15 -6 -5 8 3 7 21 -5 16 -10 30 -19 31 -19 2 -1 7 -26 13 -56 14 -71 28
-84 91 -81 28 1 60 -3 71 -9 37 -20 69 -53 63 -67 -3 -8 0 -10 7 -6 7 5 9 2 5
-9 -4 -11 -2 -14 9 -10 10 4 12 0 8 -10 -4 -12 -1 -15 15 -12 12 2 21 0 21 -4
0 -5 10 -12 22 -16 13 -4 26 -8 31 -10 4 -1 11 -3 17 -4 5 0 33 -23 61 -51 28
-27 55 -50 59 -50 4 0 11 -7 14 -16 5 -12 3 -14 -7 -8 -7 5 -4 1 6 -8 11 -10
23 -15 28 -12 5 3 6 -2 3 -11 -5 -11 -2 -14 10 -9 10 4 16 1 16 -7 0 -10 3
-10 11 -2 18 18 53 -3 75 -45 10 -20 25 -43 31 -50 7 -7 13 -18 13 -23 0 -6 4
-7 10 -4 5 3 10 0 10 -7 0 -10 2 -10 9 1 7 11 11 10 20 -5 9 -16 12 -17 21 -4
6 10 10 11 10 3 0 -7 9 -13 20 -13 11 0 20 -6 20 -14 0 -8 4 -18 10 -21 6 -4
7 1 3 12 -5 16 -4 16 14 -2 11 -11 19 -23 16 -27 -4 -7 29 -13 50 -9 5 1 6 -3
2 -9 -3 -5 3 -10 13 -10 23 0 45 -23 34 -36 -4 -4 2 -2 12 6 17 13 18 13 11 1
-6 -11 -4 -13 9 -8 9 4 15 3 12 -1 -3 -4 4 -14 16 -21 11 -7 17 -8 14 -2 -4 7
-1 8 8 5 9 -3 13 -10 10 -15 -4 -8 17 -14 39 -10 4 0 7 -4 7 -10 0 -6 7 -9 15
-5 9 3 15 -1 15 -11 0 -13 2 -14 17 -2 9 8 14 9 10 3 -4 -7 3 -11 20 -11 15 0
29 -6 31 -12 2 -6 8 -11 13 -11 6 0 7 6 3 12 -5 8 0 7 11 -2 11 -9 16 -10 11
-2 -4 6 -3 12 3 12 17 0 23 -20 10 -36 -10 -12 -9 -13 3 -9 9 4 18 -1 22 -10
4 -11 2 -14 -6 -9 -7 4 -1 -8 12 -26 13 -18 17 -30 9 -25 -12 8 -12 6 0 -8 7
-9 22 -17 32 -17 11 0 19 -4 19 -8 0 -4 11 -9 26 -10 14 -1 33 -6 43 -12 10
-5 21 -6 25 -3 3 3 6 1 6 -4 0 -6 8 -10 17 -9 9 2 25 -4 35 -13 10 -9 23 -17
28 -17 6 -1 15 -2 21 -3 5 0 7 -6 3 -13 -5 -8 -2 -9 9 -5 10 4 16 2 14 -6 -1
-6 8 -13 21 -15 12 -2 20 -8 17 -13 -4 -5 1 -9 10 -9 9 0 13 -5 10 -10 -3 -6
1 -10 9 -10 8 0 19 -6 23 -13 7 -12 42 -30 51 -27 1 0 10 -6 18 -15 9 -8 22
-15 30 -15 8 0 14 -5 14 -12 0 -6 3 -8 7 -5 3 4 13 1 21 -6 11 -8 14 -8 9 0
-5 7 4 6 23 -3 16 -9 45 -17 62 -20 18 -2 38 -10 43 -17 14 -20 80 -53 69 -35
-6 10 -5 11 7 2 8 -6 22 -10 32 -9 9 2 17 0 17 -5 0 -4 10 -6 22 -2 15 4 19 2
13 -7 -6 -10 -3 -11 14 -2 17 10 22 9 28 -4 5 -13 7 -14 14 -3 7 10 9 8 9 -6
0 -15 3 -16 15 -6 13 11 14 10 8 -5 -5 -14 -3 -17 9 -13 8 4 21 2 29 -4 11 -8
10 -8 -5 -4 -16 6 -17 4 -6 -9 10 -12 16 -13 28 -3 9 7 13 9 10 3 -8 -14 14
-32 36 -29 11 2 16 -2 12 -11 -3 -9 0 -12 10 -8 8 3 14 -1 14 -8 0 -9 3 -10
11 -2 8 8 19 6 42 -6 38 -20 58 -37 51 -44 -3 -3 9 -3 28 -1 25 4 29 2 18 -5
-8 -6 -10 -11 -4 -11 6 0 17 7 24 15 7 8 16 13 20 10 5 -3 10 -2 13 2 2 5 2 2
1 -4 -2 -7 4 -13 14 -13 13 0 14 -2 3 -9 -11 -7 -10 -11 5 -20 14 -8 15 -11 4
-11 -12 0 -11 -3 3 -11 9 -6 14 -15 11 -21 -4 -7 -2 -8 4 -4 7 4 12 3 12 -2 0
-5 14 -8 30 -6 17 2 30 0 30 -4 0 -4 24 -7 54 -7 30 0 53 -3 50 -6 -2 -4 3
-10 12 -13 8 -3 12 -2 9 4 -3 5 4 8 15 7 11 -1 20 -5 20 -10 0 -5 6 -7 14 -4
8 3 17 3 21 -1 4 -4 10 -7 15 -7 4 0 22 -15 39 -33 31 -32 51 -43 35 -19 -5 7
2 1 15 -13 13 -14 20 -19 17 -13 -5 9 -2 11 8 7 9 -3 13 -10 10 -15 -3 -5 2
-9 11 -9 10 0 13 -5 9 -12 -5 -9 -2 -9 9 1 15 12 17 11 17 -2 0 -11 6 -14 15
-11 8 4 22 1 30 -6 12 -10 15 -10 15 1 0 9 3 10 8 4 4 -5 30 -10 57 -10 56 0
95 -13 95 -32 0 -7 10 -13 23 -14 12 0 16 -3 10 -6 -21 -8 -15 -18 11 -18 13
0 22 3 19 8 -2 4 1 7 8 7 8 0 7 5 -2 17 -13 16 -12 17 3 4 10 -7 15 -17 12
-22 -3 -5 7 -4 22 1 15 6 29 8 32 5 3 -3 1 -5 -4 -5 -6 0 -19 -7 -30 -15 -17
-13 -16 -13 14 -2 27 10 34 9 42 -3 8 -12 10 -11 11 5 0 15 2 16 7 5 10 -21
42 -22 35 -1 -4 9 3 5 15 -9 19 -21 21 -22 16 -5 -5 19 -5 19 9 2 16 -20 37
-23 37 -5 0 6 7 3 16 -8 15 -18 15 -18 10 0 -5 15 -4 17 7 8 8 -7 18 -8 22 -4
5 4 5 1 1 -5 -9 -16 6 -17 22 -1 9 9 12 9 12 -1 0 -7 4 -9 10 -6 18 11 51 14
45 4 -4 -5 1 -9 9 -9 9 0 16 -5 16 -11 0 -6 5 -7 13 -2 15 10 57 12 57 3 0 -4
7 -7 15 -7 12 0 12 3 2 15 -10 13 -9 14 9 4 12 -6 24 -8 28 -4 4 3 4 -2 0 -12
-5 -12 -2 -23 8 -30 8 -6 16 -15 18 -21 10 -36 27 -56 54 -64 17 -4 35 -6 40
-3 12 7 58 7 72 1 5 -2 95 -4 199 -4 115 0 193 -4 197 -10 5 -6 8 -6 8 1 0 6
13 9 30 6 17 -2 30 -7 30 -11 0 -3 11 -19 25 -35 25 -29 26 -29 158 -33 218
-6 232 -7 239 -17 4 -6 12 -5 22 3 13 11 16 11 16 1 0 -8 3 -10 7 -7 3 4 12 2
20 -4 9 -8 13 -8 13 -1 0 6 7 9 15 6 8 -4 12 -11 9 -18 -3 -6 1 -3 9 7 13 15
15 16 21 2 3 -8 11 -15 18 -14 10 0 10 2 1 6 -7 2 -13 9 -13 14 0 6 7 6 18 1
9 -4 27 -7 40 -6 14 1 21 -3 18 -11 -2 -6 0 -18 6 -26 8 -11 9 -10 4 3 -3 10
-1 18 4 18 6 0 10 -4 10 -10 0 -5 5 -10 11 -10 5 0 7 6 4 13 -4 6 2 2 12 -9
20 -22 62 -27 75 -9 5 6 8 5 8 -4 0 -11 3 -11 15 -1 12 10 15 10 15 -1 0 -12
2 -12 9 0 7 11 9 11 13 0 4 -12 9 -12 27 -1 17 10 25 10 41 0 16 -10 24 -10
41 0 15 10 24 11 32 3 13 -13 31 -15 23 -3 -3 5 1 9 9 9 8 0 12 -4 9 -9 -7
-12 39 -5 48 7 5 6 8 6 8 -1 0 -6 10 -11 23 -10 13 1 21 7 19 16 -3 11 1 10
16 -3 20 -19 37 -23 27 -7 -3 5 -1 10 4 10 6 0 11 -4 11 -10 0 -5 10 -10 23
-10 18 0 19 2 7 10 -9 6 -10 10 -3 10 6 0 15 -4 18 -10 3 -5 11 -10 16 -10 6
0 8 4 5 8 -3 5 1 9 9 9 8 0 12 -4 9 -9 -7 -12 39 -5 48 7 5 6 8 6 8 -1 0 -6
10 -11 23 -10 13 1 21 7 19 16 -3 11 1 10 16 -3 20 -19 37 -23 27 -7 -3 6 -1
10 4 10 6 0 11 -4 11 -10 0 -5 10 -10 23 -10 18 0 19 2 7 10 -9 6 -10 10 -3
10 6 0 15 -5 18 -10 3 -6 11 -10 16 -10 6 0 8 4 5 8 -3 5 1 9 9 9 8 0 12 -4 9
-9 -7 -12 39 -5 48 7 5 6 8 6 8 -1 0 -6 10 -11 23 -10 13 1 21 7 19 16 -3 11
1 10 16 -3 20 -19 37 -23 27 -7 -3 6 -1 10 4 10 6 0 11 -4 11 -10 0 -5 10 -10
23 -10 18 0 19 2 7 10 -9 6 -10 10 -3 10 6 0 15 -4 18 -10 3 -5 11 -10 16 -10
6 0 8 4 5 8 -3 5 1 9 9 9 8 0 12 -4 9 -9 -7 -12 39 -5 48 7 5 6 8 6 8 -1 0 -6
10 -11 23 -10 13 1 21 7 19 16 -3 11 1 10 16 -3 20 -19 37 -23 27 -7 -3 5 -1
10 4 10 6 0 11 -4 11 -10 0 -5 7 -10 16 -10 9 0 12 5 8 13 -5 7 0 6 11 -3 14
-11 19 -12 22 -2 3 6 9 12 14 12 6 0 8 -3 6 -7 -3 -5 6 -9 19 -9 13 -1 24 2
24 8 0 5 -4 7 -8 4 -5 -3 -9 1 -9 9 0 11 4 12 14 4 9 -9 13 -8 13 0 0 8 4 8
14 -1 8 -7 11 -17 8 -22 -3 -5 0 -6 6 -2 6 4 9 13 5 21 -4 11 -1 13 13 8 11
-4 15 -3 10 5 -3 6 -1 14 5 18 7 4 9 3 5 -4 -3 -6 -2 -13 4 -17 5 -3 10 1 10
10 0 9 4 14 10 10 5 -3 7 -13 4 -23 -2 -9 1 -6 8 8 11 22 19 25 52 23 21 -2
45 2 54 9 12 10 14 10 8 1 -8 -14 6 -18 18 -6 9 9 34 12 184 16 111 4 125 6
147 27 13 13 22 27 19 31 -6 10 -4 10 181 14 77 2 156 3 175 4 19 1 42 1 50 1
83 -3 188 8 207 21 13 9 20 19 16 22 -3 4 -1 7 5 7 6 0 9 6 6 14 -3 7 3 16 13
20 15 6 15 9 3 17 -12 8 -10 10 8 6 16 -4 22 0 22 11 1 15 3 14 15 -2 15 -20
15 -20 16 0 0 18 1 18 8 1 7 -20 19 -21 37 -6 7 5 25 7 40 5 16 -3 36 -1 43 4
9 5 22 5 34 -2 13 -7 23 -6 31 2 8 8 7 10 -5 5 -10 -4 -19 -2 -23 3 -3 5 5 7
17 6 12 -1 22 -3 22 -4 0 -1 11 -3 24 -6 20 -4 22 -2 12 10 -9 11 -9 16 0 22
8 4 9 3 5 -4 -4 -7 -3 -12 3 -12 5 0 11 3 14 8 2 4 2 2 1 -5 -6 -23 15 -23 30
-1 13 18 16 19 16 6 0 -9 5 -20 12 -24 7 -5 8 -3 3 6 -5 9 -2 10 14 5 13 -4
21 -2 21 5 0 6 -6 8 -12 4 -7 -4 -10 -3 -5 1 4 5 18 10 30 11 12 2 16 0 10 -2
-23 -10 -14 -20 15 -18 15 1 35 3 45 3 10 1 15 6 12 12 -4 6 2 5 13 -2 12 -7
18 -18 14 -24 -3 -5 1 -4 10 2 8 7 17 12 19 10 2 -1 -3 4 -11 12 -13 11 -12
12 10 6 23 -7 24 -7 10 10 -9 11 -10 16 -2 11 6 -4 12 -2 12 3 0 16 42 61 52
55 4 -3 8 -1 8 4 0 5 21 8 48 7 26 -1 50 3 54 9 5 7 8 6 8 -3 0 -11 3 -11 15
-1 9 7 18 10 22 7 8 -9 45 12 38 23 -3 5 0 12 6 16 8 4 9 3 5 -4 -4 -7 -2 -12
3 -12 6 0 11 4 11 10 0 5 8 19 17 29 12 15 21 18 35 10 12 -6 18 -6 18 1 0 5
-5 10 -12 10 -6 0 -8 3 -5 6 4 4 14 1 24 -7 15 -12 16 -12 10 4 -6 15 -4 16
13 7 15 -8 20 -8 18 1 -2 6 3 14 11 17 8 3 11 0 7 -7 -4 -6 -2 -11 3 -11 6 0
11 5 11 11 0 5 5 7 10 4 6 -3 10 0 10 7 0 9 3 9 10 -2 5 -8 10 -10 10 -5 0 13
129 14 149 1 10 -6 12 -6 7 2 -4 7 -1 12 6 12 7 0 31 15 53 32 22 18 35 26 30
18 -7 -12 -6 -13 6 -5 8 6 29 10 47 9 19 -1 32 3 32 9 0 7 7 4 14 -6 13 -16
14 -16 20 5 5 19 8 20 16 8 9 -14 15 -7 11 14 -1 5 5 4 13 -3 13 -11 20 -8 41
13 14 14 30 26 35 26 6 0 10 6 10 13 0 8 4 7 10 -3 9 -14 14 -7 11 13 -1 5 4
7 11 5 7 -3 18 2 24 10 12 16 19 17 151 26 46 2 87 8 93 11 5 3 10 0 10 -7 1
-15 39 52 40 69 0 17 49 65 60 58 4 -3 11 2 14 11 3 9 11 14 18 12 6 -2 22 6
36 19 13 12 28 21 32 18 4 -3 7 3 6 13 0 10 6 16 17 16 9 -1 17 2 17 7 0 5 7
9 16 9 8 0 12 5 9 10 -4 6 -3 10 2 9 19 -5 83 14 83 25 0 6 5 4 10 -4 7 -11
10 -12 10 -2 0 8 6 12 13 9 6 -2 18 3 25 12 11 13 12 13 7 1 -4 -9 -1 -8 8 3
11 13 16 15 19 5 3 -8 9 -5 17 10 6 12 19 22 27 22 9 0 14 6 12 12 -5 13 32
48 50 48 5 0 13 8 16 17 6 15 8 15 16 3 6 -10 10 -11 10 -3 0 7 7 10 17 6 12
-5 14 -3 8 7 -5 8 -4 11 3 6 15 -9 62 15 62 32 0 9 3 12 7 9 3 -4 14 0 24 9
10 9 25 14 34 11 9 -4 15 -1 15 8 0 8 5 15 11 15 6 0 8 -8 5 -18 -5 -14 -4
-14 9 2 8 11 15 14 15 8 0 -7 5 -12 11 -12 6 0 8 7 5 16 -3 8 -2 12 4 9 6 -3
10 -1 10 5 0 6 5 8 10 5 6 -4 7 -11 4 -17 -4 -7 -2 -8 5 -4 6 4 8 12 5 18 -5
8 -1 9 10 5 11 -5 15 -3 10 5 -5 7 -2 9 9 5 19 -7 44 18 27 28 -12 7 -14 26
-2 24 24 -4 42 2 36 13 -4 7 -3 8 4 4 7 -4 18 -4 25 1 12 8 32 13 55 15 6 1
12 5 12 10 0 5 4 7 9 3 5 -3 12 -1 16 5 4 6 11 8 16 5 5 -4 9 -1 9 4 0 6 7 11
15 11 14 0 20 12 16 34 -1 5 6 6 15 2 14 -5 15 -4 4 9 -11 13 -10 14 3 9 11
-4 16 1 19 16 3 21 4 21 23 3 142 -129 314 -231 490 -291 191 -65 396 -88 503
-57 23 7 42 12 42 10 0 -2 38 9 85 25 137 46 256 129 329 229 31 42 108 177
105 183 -1 2 4 21 9 43 6 22 14 54 17 70 11 51 13 229 4 291 -5 32 -12 74 -14
93 -3 18 -8 37 -10 42 -3 4 6 27 20 51 77 131 107 196 161 348 29 82 41 122
70 245 14 57 34 176 40 236 11 108 13 113 63 155 18 15 42 47 52 70 13 31 29
49 57 63 26 13 43 31 50 51 6 16 22 41 36 55 15 14 26 30 26 35 0 6 10 21 22
36 13 14 23 29 23 34 0 4 26 34 58 65 35 35 72 85 92 125 19 37 52 83 73 101
33 29 53 65 56 104 1 5 19 19 41 31 22 13 45 27 52 33 7 6 17 11 23 11 5 0 10
7 10 15 0 25 1 29 12 43 6 6 7 12 4 12 -16 0 31 63 53 71 13 5 21 12 17 16 -3
3 -2 11 3 17 4 6 18 43 29 81 12 40 30 76 41 84 11 8 18 18 15 23 -3 4 4 8 15
8 11 0 22 9 26 20 4 11 11 18 16 15 8 -6 11 2 8 22 0 3 6 10 15 15 9 5 16 18
16 28 0 10 4 21 8 24 5 3 8 19 7 36 -1 16 2 30 7 30 5 0 6 5 3 10 -3 6 -1 10
5 10 16 0 71 60 65 71 -4 5 -1 9 4 9 6 0 10 3 10 8 -4 21 3 40 21 60 11 12 20
28 20 37 0 9 4 14 9 11 5 -3 12 6 15 19 4 17 11 23 19 19 7 -4 9 -4 5 1 -4 4
0 22 9 39 10 17 16 35 15 40 -2 4 1 13 6 20 6 6 13 25 16 42 4 17 20 45 37 63
32 36 77 117 83 153 3 13 5 25 6 28 2 3 2 8 1 13 0 4 3 7 8 7 4 0 16 28 26 63
9 34 26 78 37 97 11 19 32 66 45 105 14 38 38 86 52 105 34 43 74 121 67 128
-3 3 -2 10 3 16 5 6 11 34 14 63 4 43 12 59 41 89 20 20 36 42 37 48 0 6 2 18
3 26 2 8 6 39 10 69 10 79 15 99 51 171 42 84 68 165 71 215 1 22 2 45 3 52 1
6 13 25 27 42 22 27 26 42 29 112 3 70 9 89 39 145 20 35 34 64 32 64 -3 0 0
15 5 33 8 25 18 170 19 258 0 9 11 22 25 29 30 16 37 36 40 120 2 74 13 129
27 148 6 6 7 12 3 12 -4 0 -3 6 2 13 24 30 31 83 48 367 6 93 11 145 21 204 5
29 27 69 35 62 2 -2 4 9 5 25 1 16 -3 26 -8 22 -6 -3 -5 4 1 15 6 11 11 23 11
27 0 3 -5 3 -11 -1 -8 -5 -8 -1 0 14 14 26 14 35 0 26 -8 -5 -8 -1 0 14 6 11
11 23 11 27 0 3 -5 3 -11 -1 -8 -5 -8 -1 0 14 14 26 14 35 0 26 -8 -5 -8 -1 0
14 14 26 14 35 0 26 -8 -5 -8 -1 0 14 14 26 14 35 0 26 -8 -5 -8 -1 0 14 14
26 14 35 0 26 -8 -5 -8 -1 0 14 14 26 14 35 0 26 -8 -5 -8 -1 0 14 14 26 14
35 0 26 -8 -5 -8 -1 0 14 14 26 14 35 0 26 -8 -5 -8 -1 0 14 14 26 14 35 0 26
-8 -5 -8 -1 0 14 14 26 14 35 0 26 -8 -5 -8 -1 0 14 6 11 11 23 11 27 0 3 -5
3 -11 -1 -8 -5 -8 -1 0 14 14 26 14 35 0 26 -8 -5 -8 -1 0 14 14 26 14 35 0
26 -8 -5 -8 -1 0 14 14 26 14 35 0 26 -8 -5 -8 -1 0 14 14 26 14 35 0 26 -8
-5 -8 -1 0 14 14 26 14 35 0 26 -8 -5 -8 -1 0 14 14 26 14 35 0 26 -8 -5 -8
-1 0 14 6 11 11 23 11 27 0 3 -5 3 -11 -1 -8 -5 -8 -1 0 14 14 26 14 35 0 26
-8 -5 -8 -1 0 14 14 26 14 35 0 26 -8 -5 -8 -1 0 14 14 26 14 35 0 26 -8 -5
-8 -1 0 14 14 26 14 35 0 26 -8 -5 -8 -1 0 14 6 11 11 23 11 27 0 3 -5 3 -11
-1 -8 -5 -8 -1 0 14 14 26 14 35 0 26 -8 -5 -8 -1 0 14 14 26 14 35 0 26 -8
-5 -8 -1 0 14 14 26 14 35 0 26 -8 -5 -8 -1 0 14 14 26 14 35 0 26 -8 -5 -8
-1 0 14 14 26 14 35 0 26 -8 -5 -8 -1 0 14 14 26 14 35 0 26 -8 -5 -8 -1 0 14
14 26 14 35 0 26 -8 -5 -8 -1 0 14 14 26 14 35 0 26 -8 -5 -8 -1 0 14 14 26
14 35 0 26 -8 -5 -8 -1 0 14 14 26 14 35 0 26 -8 -5 -8 -1 0 14 14 26 14 35 0
26 -8 -5 -8 -1 0 14 14 26 14 35 0 26 -8 -5 -8 -1 0 14 14 26 14 35 0 26 -8
-5 -8 -1 0 14 14 26 14 35 0 26 -8 -5 -8 -1 0 14 14 26 14 35 0 26 -8 -5 -8
-1 0 14 14 26 14 35 0 26 -8 -5 -8 -1 0 14 14 26 14 35 0 26 -8 -5 -8 -1 0 14
14 26 14 35 0 26 -8 -5 -8 -1 0 14 14 27 14 35 -1 26 -10 -6 -10 -4 0 8 10 13
10 17 -4 22 -13 5 -14 10 -6 18 8 8 7 15 -4 26 -11 11 -12 17 -4 22 8 5 7 9
-5 14 -9 3 -15 12 -12 19 2 6 1 19 -4 28 -10 19 -18 112 -24 272 -6 156 -12
210 -36 282 -10 33 -21 71 -24 84 -2 12 -6 30 -9 39 -18 64 -16 94 12 135 28
40 78 155 88 201 20 86 29 166 23 196 -30 146 -59 208 -135 291 -50 55 -142
105 -201 108 -19 1 -32 34 -37 94 -6 57 -23 107 -38 107 -5 0 -6 5 -3 10 3 6
2 10 -4 10 -12 0 -29 51 -36 110 -9 75 -17 110 -26 116 -5 3 -7 10 -4 15 4 5
2 9 -3 9 -11 0 -42 93 -42 126 0 13 -13 39 -30 57 -20 23 -32 49 -35 78 -5 43
-23 99 -35 109 -14 12 -51 71 -55 87 -15 69 -37 139 -45 141 -6 2 -10 10 -10
18 0 8 -4 14 -10 14 -5 0 -10 9 -10 19 0 11 -4 22 -9 25 -5 4 -12 29 -16 56
-5 37 -13 55 -30 66 -22 14 -44 53 -49 88 -1 9 -12 28 -25 43 -23 27 -52 85
-55 111 -1 7 -9 21 -17 30 -24 28 -59 92 -59 107 0 8 -13 29 -28 47 -15 18
-36 58 -46 88 -10 30 -27 62 -37 71 -10 9 -21 29 -25 45 -4 16 -13 39 -21 50
-8 12 -16 34 -19 49 -5 27 -59 85 -80 85 -13 0 -44 43 -49 68 -6 32 -37 102
-45 102 -4 0 -22 29 -40 65 -18 36 -45 76 -60 89 -15 12 -35 36 -44 52 -9 16
-20 36 -25 44 -11 17 -22 49 -18 53 1 1 -4 9 -10 17 -52 61 -93 116 -93 125 0
5 -12 21 -26 34 -14 13 -32 38 -41 55 -9 17 -35 52 -59 78 -39 42 -51 62 -65
103 -4 14 -159 165 -169 165 -4 0 -21 26 -38 58 -17 31 -59 87 -94 123 -64 66
-137 151 -150 174 -4 7 -21 27 -38 45 l-30 32 0 244 0 244 -255 0 -255 0 -49
48 c-27 26 -77 72 -111 102 -35 30 -75 65 -89 78 -14 13 -39 30 -55 39 -16 8
-61 47 -100 85 -39 38 -84 77 -99 85 -15 8 -46 32 -69 54 -22 21 -44 39 -49
39 -14 0 -123 76 -162 113 -53 49 -140 116 -173 133 -16 9 -32 22 -37 29 -8
14 -172 115 -187 115 -5 0 -30 18 -55 40 -25 22 -52 40 -58 40 -7 0 -29 13
-48 29 -20 17 -56 38 -80 47 -24 10 -63 34 -87 55 -24 21 -56 41 -72 44 -15 3
-41 17 -57 31 -15 13 -46 29 -67 35 -22 6 -55 23 -75 39 -20 16 -56 34 -81 40
-25 6 -64 24 -86 41 -23 16 -68 36 -100 44 -52 13 -93 43 -94 67 0 11 -50 25
-101 27 -9 1 -28 12 -43 26 -15 14 -33 25 -40 25 -15 0 -109 48 -116 60 -6 10
-89 40 -111 40 -9 0 -32 11 -51 24 -19 13 -62 33 -94 46 -33 12 -66 28 -75 36
-9 8 -19 11 -22 7 -4 -3 -7 -1 -7 5 0 6 -17 14 -37 19 -21 4 -40 8 -43 9 -3 1
-20 5 -38 9 -18 4 -35 12 -38 16 -3 5 -10 7 -15 4 -5 -4 -9 -1 -9 5 0 6 -4 9
-9 5 -5 -3 -12 -1 -16 5 -3 5 -16 10 -29 10 -12 0 -26 4 -31 8 -6 5 -37 14
-70 21 -33 7 -78 21 -100 31 -112 51 -193 79 -254 85 -21 2 -53 13 -72 24 -21
12 -61 23 -99 26 -75 6 -88 10 -155 40 -27 12 -68 25 -90 30 -79 14 -106 20
-147 31 -13 3 -32 7 -43 9 -11 2 -20 4 -20 5 0 1 -8 3 -17 5 -10 2 -18 -2 -18
-8 0 -9 -2 -9 -8 -1 -16 25 -73 42 -166 48 -54 4 -104 10 -110 14 -6 4 -13 7
-16 7 -3 1 -29 9 -58 19 -61 21 -84 24 -236 32 -61 3 -113 7 -116 9 -3 2 -37
6 -75 10 -39 4 -81 9 -95 13 -29 7 -2095 14 -2102 7z m-6775 -13505 c-3 -12
-8 -19 -11 -16 -5 6 5 36 12 36 2 0 2 -9 -1 -20z m13754 -2257 c27 -35 74
-144 84 -196 30 -154 -18 -284 -126 -344 -45 -25 -59 -28 -145 -28 -89 0 -100
3 -170 37 -41 20 -99 59 -127 87 -48 45 -68 71 -44 57 5 -3 12 1 15 10 3 8 10
12 16 9 5 -3 10 -2 10 3 0 6 10 12 23 16 13 3 40 17 60 30 20 14 37 22 37 18
0 -4 5 1 11 11 6 9 14 15 19 12 5 -3 11 4 15 15 4 11 11 18 16 15 5 -4 9 -2 9
3 0 5 13 15 29 22 22 9 32 22 41 56 9 33 19 46 36 50 13 3 24 11 24 17 0 6 3
7 7 4 3 -4 15 1 26 10 15 13 18 14 12 3 -8 -13 -7 -13 8 -1 10 8 16 16 13 18
-6 6 66 83 77 83 5 0 16 -8 24 -17z m-1284 -926 c-5 -8 -8 -7 -11 1 -2 7 -9 9
-14 6 -7 -4 -8 -2 -4 4 4 6 13 9 21 6 8 -4 12 -11 8 -17z m-8023 -591 c0 -3
-4 -8 -10 -11 -5 -3 -10 -1 -10 4 0 6 5 11 10 11 6 0 10 -2 10 -4z m5611 -389
c-10 -9 -11 -8 -5 6 3 10 9 15 12 12 3 -3 0 -11 -7 -18z m-157 -8 c-3 -5 -14
-7 -24 -6 -31 5 -31 12 1 13 16 1 26 -2 23 -7z m-4069 -19 c3 -5 1 -10 -4 -10
-6 0 -11 5 -11 10 0 6 2 10 4 10 3 0 8 -4 11 -10z"/>
<path d="M69 6472 c9 -7 10 -12 2 -16 -6 -4 -9 -12 -5 -17 3 -5 9 -7 14 -4 13
8 5 38 -11 43 -12 3 -12 2 0 -6z"/>
<path d="M285 5940 c6 -8 10 -19 10 -25 0 -5 8 -10 18 -11 12 -1 13 -1 2 3 -8
2 -13 8 -10 13 3 4 -3 14 -12 21 -15 12 -16 12 -8 -1z"/>
<path d="M4306 1323 c-6 -14 -5 -15 5 -6 7 7 10 15 7 18 -3 3 -9 -2 -12 -12z"/>
<path d="M5630 679 c0 -5 5 -7 10 -4 6 3 10 8 10 11 0 2 -4 4 -10 4 -5 0 -10
-5 -10 -11z"/>
<path d="M11750 510 c0 -5 5 -10 11 -10 5 0 7 5 4 10 -3 6 -8 10 -11 10 -2 0
-4 -4 -4 -10z"/>
<path d="M6776 331 c-3 -5 1 -11 9 -14 9 -4 12 -1 8 9 -6 16 -10 17 -17 5z"/>
<path d="M6858 308 c5 -5 16 -8 23 -6 8 3 3 7 -10 11 -17 4 -21 3 -13 -5z"/>
<path d="M8206 64 c-11 -8 -16 -14 -10 -14 13 0 39 18 34 24 -3 2 -14 -2 -24
-10z"/>
<path d="M8280 40 c-9 -6 -10 -10 -3 -10 6 0 15 5 18 10 8 12 4 12 -15 0z"/>
<path d="M9670 39 c0 -5 5 -7 10 -4 6 3 10 8 10 11 0 2 -4 4 -10 4 -5 0 -10
-5 -10 -11z"/>
</g>
</svg>
